HIERARCHY
ROOT Hips
{
	OFFSET 0.000000 0.000000 0.000000
	CHANNELS 6 Xposition Yposition Zposition Xrotation Yrotation Zrotation
	JOINT Chest
	{
		OFFSET 0.000000 0.009282 11.569106
		CHANNELS 3 Xrotation Yrotation Zrotation
		JOINT Chest2
		{
			OFFSET 0.000000 -0.016863 9.269641
			CHANNELS 3 Xrotation Yrotation Zrotation
			JOINT Chest3
			{
				OFFSET 0.000000 0.000000 8.374491
				CHANNELS 3 Xrotation Yrotation Zrotation
				JOINT Chest4
				{
					OFFSET 0.000000 0.000000 8.374493
					CHANNELS 3 Xrotation Yrotation Zrotation
					JOINT Neck
					{
						OFFSET 0.000000 -0.000001 12.152554
						CHANNELS 3 Xrotation Yrotation Zrotation
						JOINT Head
						{
							OFFSET 0.000000 -0.040100 7.802319
							CHANNELS 3 Xrotation Yrotation Zrotation
							End Site
							{
								OFFSET 0.000000 -0.020946 14.853096
							}
						}
					}
					JOINT RightCollar
					{
						OFFSET -2.894404 0.000000 6.791374
						CHANNELS 3 Xrotation Yrotation Zrotation
						JOINT RightShoulder
						{
							OFFSET -13.574684 0.000000 0.000000
							CHANNELS 3 Xrotation Yrotation Zrotation
							JOINT RightElbow
							{
								OFFSET -23.923903 0.000000 0.000000
								CHANNELS 3 Xrotation Yrotation Zrotation
								JOINT RightWrist
								{
									OFFSET -19.846718 -0.012765 0.000000
									CHANNELS 3 Xrotation Yrotation Zrotation
									End Site
									{
										OFFSET -14.973145 0.000000 0.000000
									}
								}
							}
						}
					}
					JOINT LeftCollar
					{
						OFFSET 2.894404 0.000000 6.791374
						CHANNELS 3 Xrotation Yrotation Zrotation
						JOINT LeftShoulder
						{
							OFFSET 13.574684 0.000000 0.000000
							CHANNELS 3 Xrotation Yrotation Zrotation
							JOINT LeftElbow
							{
								OFFSET 23.923903 0.000000 0.000000
								CHANNELS 3 Xrotation Yrotation Zrotation
								JOINT LeftWrist
								{
									OFFSET 19.846718 -0.012765 0.000000
									CHANNELS 3 Xrotation Yrotation Zrotation
									End Site
									{
										OFFSET 14.973145 0.000000 0.000000
									}
								}
							}
						}
					}
				}
			}
		}
	}
	JOINT RightHip
	{
		OFFSET -9.469263 -0.004642 0.045487
		CHANNELS 3 Xrotation Yrotation Zrotation
		JOINT RightKnee
		{
			OFFSET 0.000000 -0.002666 -40.478676
			CHANNELS 3 Xrotation Yrotation Zrotation
			JOINT RightAnkle
			{
				OFFSET 0.000000 -0.049110 -35.224068
				CHANNELS 3 Xrotation Yrotation Zrotation
				JOINT RightToe
				{
					OFFSET 0.000000 -12.539530 -6.151390
					CHANNELS 3 Xrotation Yrotation Zrotation
					End Site
					{
						OFFSET 0.000000 -5.044995 -1.291870
					}
				}
			}
		}
	}
	JOINT LeftHip
	{
		OFFSET 9.469263 -0.004642 0.045487
		CHANNELS 3 Xrotation Yrotation Zrotation
		JOINT LeftKnee
		{
			OFFSET 0.000000 -0.002666 -40.478676
			CHANNELS 3 Xrotation Yrotation Zrotation
			JOINT LeftAnkle
			{
				OFFSET 0.000000 -0.049110 -35.224068
				CHANNELS 3 Xrotation Yrotation Zrotation
				JOINT LeftToe
				{
					OFFSET 0.000000 -12.539530 -6.151390
					CHANNELS 3 Xrotation Yrotation Zrotation
					End Site
					{
						OFFSET 0.000000 -5.044995 -1.291870
					}
				}
			}
		}
	}
}
MOTION
Frames: 5
Frame Time: 0.016667
-12.277766 -4.975253 82.919769 2.520718 6.420921 -111.087016 4.513622 0.373252 1.281641 2.005113 0.155938 0.580136 2.005113 0.155938 0.580134 1.503984 0.115051 0.435615 15.918085 -0.895184 -3.013624 -6.603556 -0.537504 -5.811547 -14.527625 -3.388223 -5.193041 -59.502450 -21.443012 -1.347646 0.028507 -41.279884 74.321447 -32.846100 13.788569 30.403890 -12.833179 4.738740 -2.799352 -55.852263 20.761702 -2.639655 -8.875357 30.424541 -67.827542 -36.678355 -6.124405 -25.377009 8.824023 0.138782 -3.523904 4.404932 -1.882675 -3.465458 -6.105806 1.663935 1.386680 0.013363 -0.021298 -0.017605 10.516269 0.110933 1.972745 2.292897 -0.501420 2.315575 -6.018419 0.167121 1.718284 -0.020876 -0.016186 0.013874 
-12.287362 -4.969439 82.919609 2.511440 6.396444 -111.110860 4.529428 0.377941 1.285795 2.012509 0.157671 0.580842 2.012509 0.157671 0.580837 1.509532 0.116342 0.436154 15.936071 -0.900541 -3.012971 -6.570418 -0.548267 -5.812196 -14.576119 -3.352998 -5.241164 -59.397162 -21.418696 -1.259539 -0.026147 -41.398583 74.181708 -32.877338 13.693638 30.305030 -12.855145 4.708213 -2.769028 -55.831018 20.767994 -2.684551 -8.881814 30.372560 -67.757307 -36.692958 -6.061523 -25.340622 8.788054 0.140304 -3.448443 4.435426 -1.882551 -3.491956 -6.123515 1.664458 1.356567 0.012089 -0.015874 -0.017152 10.504904 0.113271 1.970292 2.285523 -0.496701 2.344749 -6.017943 0.172886 1.723933 -0.021882 -0.019217 0.013908 
-12.299803 -4.961167 82.919357 2.503236 6.372917 -111.134711 4.545097 0.381577 1.292712 2.018973 0.159343 0.583529 2.018975 0.159342 0.583527 1.514384 0.117581 0.438179 15.952706 -0.901714 -3.014434 -6.539567 -0.550595 -5.815205 -14.593712 -3.304805 -5.292816 -59.308800 -21.387865 -1.179599 -0.095597 -41.492569 74.031560 -32.877112 13.594370 30.216357 -12.876228 4.680157 -2.753992 -55.806914 20.771572 -2.740045 -8.913290 30.325128 -67.673958 -36.723844 -5.971798 -25.287566 8.764863 0.140059 -3.395032 4.447453 -1.880493 -3.500888 -6.134976 1.663963 1.347803 0.012105 -0.010619 -0.016812 10.504384 0.110485 1.988803 2.262773 -0.487327 2.367045 -6.012598 0.180385 1.730932 -0.021600 -0.022692 0.014644 
-12.317786 -4.952421 82.919121 2.493301 6.343966 -111.156124 4.557221 0.383143 1.295220 2.023564 0.159724 0.584440 2.023564 0.159723 0.584442 1.517826 0.117859 0.438864 15.974749 -0.899819 -3.009603 -6.498689 -0.549843 -5.805598 -14.645135 -3.241266 -5.346021 -59.176930 -21.366300 -1.063324 -0.189552 -41.513169 73.825288 -32.879895 13.503083 30.143196 -12.919793 4.645611 -2.721138 -55.756801 20.783649 -2.807553 -8.973869 30.318213 -67.572953 -36.711048 -5.883217 -25.213657 8.752683 0.137371 -3.385061 4.435464 -1.873603 -3.481734 -6.138606 1.660029 1.331363 0.012670 -0.005024 -0.017607 10.505394 0.108306 2.021599 2.232381 -0.481040 2.378726 -6.006014 0.190997 1.713406 -0.021999 -0.026416 0.014886 
-12.341330 -4.943886 82.919464 2.479666 6.319567 -111.170092 4.570487 0.385296 1.295333 2.029112 0.160696 0.584305 2.029113 0.160696 0.584308 1.521990 0.118584 0.438771 16.001849 -0.893633 -3.003388 -6.448298 -0.541996 -5.791895 -14.702059 -3.159419 -5.420979 -59.030224 -21.351065 -0.908896 -0.318750 -41.505868 73.561615 -32.890738 13.404836 30.042932 -12.970613 4.612766 -2.705197 -55.705281 20.773054 -2.877460 -9.041732 30.341927 -67.455249 -36.651464 -5.810275 -25.139677 8.754265 0.141342 -3.382881 4.409196 -1.863735 -3.471798 -6.138223 1.646088 1.338289 0.013036 0.001896 -0.018069 10.512074 0.114493 2.056247 2.200858 -0.483313 2.384969 -5.997427 0.210111 1.678806 -0.025592 -0.032727 0.014021 
